<svg xmlns="http://www.w3.org/2000/svg" version="1.1" xmlns:xlink="http://www.w3.org/1999/xlink" xmlns:svgjs="http://svgjs.dev/svgjs" width="1500" height="1500" viewBox="0 0 1500 1500"><rect width="1500" height="1500" fill="#ffffff"></rect><g transform="matrix(0.6666666666666666,0,0,0.6666666666666666,249.39393939393938,435.99032258064517)"><svg viewBox="0 0 396 248" data-background-color="#ffffff" preserveAspectRatio="xMidYMid meet" height="939" width="1500" xmlns="http://www.w3.org/2000/svg" xmlns:xlink="http://www.w3.org/1999/xlink"><g id="tight-bounds" transform="matrix(1,0,0,1,0.2400000000000091,0.4000000000000057)"><svg viewBox="0 0 395.52 247.2" height="247.2" width="395.52"><g><svg></svg></g><g><svg viewBox="0 0 395.52 247.2" height="247.2" width="395.52"><g transform="matrix(1,0,0,1,75.54432,60.840484180431304)"><svg viewBox="0 0 244.43135999999998 125.51903163913738" height="125.51903163913738" width="244.43135999999998"><g><svg viewBox="0 0 244.43135999999998 125.51903163913738" height="125.51903163913738" width="244.43135999999998"><g><svg viewBox="0 0 244.43135999999998 125.51903163913738" height="125.51903163913738" width="244.43135999999998"><g transform="matrix(1,0,0,1,0,77.5757971267942)"><svg viewBox="0 0 244.43135999999998 47.943234512343174" height="47.943234512343174" width="244.43135999999998"><g id="textblocktransform"><svg viewBox="0 0 244.43135999999998 47.943234512343174" height="47.943234512343174" width="244.43135999999998" id="textblock"><g><svg viewBox="0 0 244.43135999999998 47.943234512343174" height="47.943234512343174" width="244.43135999999998"><g transform="matrix(1,0,0,1,0,0)"><svg width="244.43135999999998" viewBox="3.49 -35.01 180.97 35.5" height="47.943234512343174" data-palette-color="#31c48d"><path d="M23.19-8.11L23.19-8.11Q23.19-6.32 22.52-4.76 21.85-3.2 20.68-2.03 19.51-0.85 17.94-0.18 16.38 0.49 14.6 0.49L14.6 0.49 12.11 0.49Q10.33 0.49 8.75-0.18 7.18-0.85 6.01-2.03 4.83-3.2 4.16-4.76 3.49-6.32 3.49-8.11L3.49-8.11 3.49-35.01 6.64-35.01 6.64-8.11Q6.64-6.93 7.08-5.92 7.52-4.91 8.29-4.14 9.06-3.37 10.07-2.93 11.08-2.49 12.26-2.49L12.26-2.49 14.45-2.49Q15.63-2.49 16.64-2.93 17.65-3.37 18.41-4.14 19.17-4.91 19.6-5.92 20.04-6.93 20.04-8.11L20.04-8.11 20.04-35.01 23.19-35.01 23.19-8.11ZM51.71 0L47.8 0 34.62-17.5 47.8-35.01 51.71-35.01 38.25-17.5 51.71 0ZM33.86 0L30.71 0 30.71-35.01 33.86-35.01 33.86 0ZM76.8 0L73.16 0 63.67-14.94 59.35-14.94 59.35 0 56.2 0 56.2-35.01 67.3-35.01Q69.09-35.01 70.65-34.34 72.21-33.67 73.38-32.5 74.56-31.32 75.23-29.75 75.9-28.17 75.9-26.39L75.9-26.39 75.9-23.56Q75.9-21.78 75.23-20.2 74.56-18.63 73.38-17.46 72.21-16.28 70.65-15.61 69.09-14.94 67.3-14.94L67.3-14.94 76.8 0ZM72.75-23.56L72.75-26.39Q72.75-27.56 72.31-28.58 71.87-29.59 71.11-30.36 70.36-31.13 69.34-31.57 68.33-32.01 67.16-32.01L67.16-32.01 59.35-32.01 59.35-17.94 67.16-17.94Q68.33-17.94 69.34-18.38 70.36-18.82 71.11-19.59 71.87-20.36 72.31-21.37 72.75-22.39 72.75-23.56L72.75-23.56ZM98.5-6.86L98.5-6.86Q98.5-5.35 97.93-4 97.36-2.66 96.35-1.66 95.35-0.66 94.01-0.09 92.67 0.49 91.15 0.49L91.15 0.49 89.15 0.49Q87.64 0.49 86.3-0.09 84.95-0.66 83.95-1.66 82.95-2.66 82.38-4 81.8-5.35 81.8-6.86L81.8-6.86 81.8-18.14Q81.8-19.65 82.38-21 82.95-22.34 83.95-23.34 84.95-24.34 86.3-24.91 87.64-25.49 89.15-25.49L89.15-25.49 91.15-25.49Q92.67-25.49 94.01-24.91 95.35-24.34 96.35-23.34 97.36-22.34 97.93-21 98.5-19.65 98.5-18.14L98.5-18.14 98.5-6.86ZM95.5-6.69L95.5-18.31Q95.5-19.21 95.16-20.01 94.82-20.8 94.23-21.39 93.64-21.97 92.85-22.31 92.06-22.66 91.15-22.66L91.15-22.66 89.15-22.66Q88.25-22.66 87.46-22.31 86.66-21.97 86.08-21.39 85.49-20.8 85.15-20.01 84.81-19.21 84.81-18.31L84.81-18.31 84.81-6.69Q84.81-5.79 85.15-4.99 85.49-4.2 86.08-3.61 86.66-3.03 87.46-2.69 88.25-2.34 89.15-2.34L89.15-2.34 91.15-2.34Q92.06-2.34 92.85-2.69 93.64-3.03 94.23-3.61 94.82-4.2 95.16-4.99 95.5-5.79 95.5-6.69L95.5-6.69ZM121.21 0L120.2 0 118.54-2.54Q117.52-1.15 115.98-0.33 114.44 0.49 112.61 0.49L112.61 0.49 111.86 0.49Q110.34 0.49 109-0.09 107.66-0.66 106.66-1.66 105.65-2.66 105.08-4 104.51-5.35 104.51-6.86L104.51-6.86 104.51-25 107.51-25 107.51-6.69Q107.51-5.79 107.85-4.99 108.19-4.2 108.78-3.61 109.37-3.03 110.16-2.69 110.95-2.34 111.86-2.34L111.86-2.34 113.86-2.34Q114.76-2.34 115.55-2.69 116.35-3.03 116.93-3.61 117.52-4.2 117.86-4.99 118.2-5.79 118.2-6.69L118.2-6.69 118.2-25 121.21-25 121.21 0ZM139.05 0L136.32 0Q134.95 0 133.74-0.51 132.53-1.03 131.64-1.93 130.75-2.83 130.22-4.03 129.7-5.22 129.7-6.59L129.7-6.59 129.7-22.14 125.21-22.14 125.21-25 129.7-25 129.7-31.01 132.7-31.49 132.7-25 139.05-25 139.05-22.14 132.7-22.14 132.7-6.45Q132.7-5.69 132.98-5.04 133.26-4.39 133.75-3.91 134.24-3.42 134.9-3.14 135.56-2.86 136.32-2.86L136.32-2.86 139.05-2.86 139.05 0ZM161.26-6.86L161.26-6.86Q161.26-5.35 160.69-4 160.12-2.66 159.12-1.66 158.11-0.66 156.77-0.09 155.43 0.49 153.92 0.49L153.92 0.49 151.91 0.49Q150.4 0.49 149.06-0.09 147.71-0.66 146.71-1.66 145.71-2.66 145.14-4 144.57-5.35 144.57-6.86L144.57-6.86 144.57-18.14Q144.57-19.65 145.14-21 145.71-22.34 146.71-23.34 147.71-24.34 149.06-24.91 150.4-25.49 151.91-25.49L151.91-25.49 153.92-25.49Q155.43-25.49 156.77-24.91 158.11-24.34 159.12-23.34 160.12-22.34 160.69-21 161.26-19.65 161.26-18.14L161.26-18.14 161.26-12.26 147.57-12.26 147.57-6.69Q147.57-5.79 147.91-4.99 148.25-4.2 148.84-3.61 149.42-3.03 150.22-2.69 151.01-2.34 151.91-2.34L151.91-2.34 153.92-2.34Q154.82-2.34 155.61-2.69 156.41-3.03 156.99-3.61 157.58-4.2 157.92-4.99 158.26-5.79 158.26-6.69L158.26-6.69 158.26-8.35 161.26-7.86 161.26-6.86ZM158.26-14.6L158.26-18.31Q158.26-19.21 157.92-20.01 157.58-20.8 156.99-21.39 156.41-21.97 155.61-22.31 154.82-22.66 153.92-22.66L153.92-22.66 151.91-22.66Q151.01-22.66 150.22-22.31 149.42-21.97 148.84-21.39 148.25-20.8 147.91-20.01 147.57-19.21 147.57-18.31L147.57-18.31 147.57-14.6 158.26-14.6ZM184.46-6.35L184.46-6.35Q184.46-4.83 183.84-3.58 183.23-2.32 182.18-1.42 181.13-0.51 179.76-0.01 178.38 0.49 176.86 0.49L176.86 0.49 174.86 0.49Q173.35 0.49 171.97-0.09 170.59-0.66 169.55-1.66 168.51-2.66 167.89-4 167.27-5.35 167.27-6.86L167.27-6.86 167.27-7.86 170.27-8.35 170.27-6.69Q170.27-5.79 170.65-4.99 171.03-4.2 171.66-3.61 172.3-3.03 173.13-2.69 173.96-2.34 174.86-2.34L174.86-2.34 176.86-2.34Q177.77-2.34 178.6-2.61 179.43-2.88 180.07-3.38 180.72-3.88 181.1-4.59 181.48-5.3 181.48-6.2L181.48-6.2Q181.48-7.54 180.89-8.4 180.3-9.25 179.34-9.83 178.38-10.4 177.14-10.78 175.91-11.16 174.62-11.54 173.32-11.91 172.09-12.4 170.86-12.89 169.89-13.68 168.93-14.48 168.34-15.67 167.76-16.87 167.76-18.65L167.76-18.65Q167.76-20.17 168.34-21.42 168.93-22.68 169.93-23.58 170.93-24.49 172.26-24.99 173.59-25.49 175.1-25.49L175.1-25.49 176.86-25.49Q178.38-25.49 179.72-24.91 181.06-24.34 182.06-23.34 183.06-22.34 183.64-21 184.21-19.65 184.21-18.14L184.21-18.14 184.21-18.04 181.21-17.55 181.21-18.31Q181.21-19.21 180.87-20.01 180.52-20.8 179.94-21.39 179.35-21.97 178.56-22.31 177.77-22.66 176.86-22.66L176.86-22.66 175.1-22.66Q174.2-22.66 173.41-22.39 172.61-22.12 172.03-21.62 171.44-21.12 171.1-20.41 170.76-19.7 170.76-18.8L170.76-18.8Q170.76-17.5 171.34-16.69 171.93-15.87 172.9-15.31 173.86-14.75 175.09-14.37 176.33-13.99 177.61-13.59 178.89-13.18 180.12-12.67 181.35-12.16 182.32-11.35 183.28-10.55 183.87-9.34 184.46-8.13 184.46-6.35Z" opacity="1" transform="matrix(1,0,0,1,0,0)" fill="#000000" class="wordmark-text-0" data-fill-palette-color="primary" id="text-0"></path></svg></g></svg></g></svg></g></svg></g><g transform="matrix(1,0,0,1,88.20737995069575,0)"><svg viewBox="0 0 68.01660009860849 66.25755009605827" height="66.25755009605827" width="68.01660009860849"><g><svg xmlns="http://www.w3.org/2000/svg" xmlns:xlink="http://www.w3.org/1999/xlink" version="1.0" x="0" y="0" viewBox="5 7.450000000000001 89.9 87.575" enable-background="new 0 0 100 100" xml:space="preserve" height="66.25755009605827" width="68.01660009860849" class="icon-icon-0" data-fill-palette-color="accent" id="icon-0"><path d="M6.5 82.3L34.8 94.8C35.4 95.1 36.2 95.1 36.8 94.8L64.1 82.7 91.4 94.8C91.7 94.9 92.1 95 92.4 95 92.9 95 93.4 94.9 93.8 94.6 94.5 94.1 94.9 93.4 94.9 92.5V20C94.9 18.9 94.2 18 93.2 17.6L65 7.6C64.5 7.4 63.9 7.4 63.3 7.6L35.8 17.3 8.3 7.6C7.6 7.4 6.7 7.5 6.1 8 5.4 8.4 5 9.2 5 10V80C5 81 5.6 81.9 6.5 82.3M65.4 48.4S65.5 48.4 65.4 48.4C71.2 47.3 75.1 45.7 79 43.2 79.7 43.5 80.4 43.7 81.2 43.7 84 43.7 86.2 41.5 86.2 38.7S84 33.7 81.2 33.7 76.2 35.9 76.2 38.7V39C73 41 69.8 42.3 65.3 43.2V13.1L90 21.8V88.7L65.4 77.8zM78.8 38.8C78.8 37.4 79.9 36.3 81.3 36.3S83.8 37.4 83.8 38.8 82.7 41.3 81.3 41.3 78.8 40.1 78.8 38.8M37.1 22.2L62.9 13.1V42.1C58.3 40 52 38.3 47 43.2 43.9 46.2 42.9 50 42 53.3 41 57 40.2 59.9 37.1 61.6zM37.1 67.1C44 64.6 45.6 59.1 46.8 54.6 47.6 51.6 48.4 48.8 50.5 46.8 53.5 43.9 57.4 44.8 62.9 47.7V77.9L37.1 89.2zM10 13.5L34.6 22.2V61.1C31.3 58.4 28 54.9 25.8 52.1 26.1 51.5 26.3 50.7 26.3 50 26.3 47.2 24.1 45 21.3 45S16.3 47.2 16.3 50 18.5 55 21.3 55H21.7C24.9 59.1 29.9 64 34.1 67.1L34.7 67.4V89.3L10 78.4zM21.3 52.5C19.9 52.5 18.8 51.4 18.8 50S19.9 47.5 21.3 47.5 23.8 48.6 23.8 50 22.6 52.5 21.3 52.5" fill="#000000" data-fill-palette-color="accent"></path></svg></g></svg></g><g></g></svg></g></svg></g></svg></g><g><path d="M100.553 49.522A122.216 122.216 0 0 1 294.967 49.522L290.643 49.522A117.892 117.892 0 0 0 104.877 49.522L100.553 49.522M100.553 197.678A122.216 122.216 0 0 0 294.967 197.678L290.643 197.678A117.892 117.892 0 0 1 104.877 197.678L100.553 197.678" fill="#000000" stroke="transparent" data-fill-palette-color="tertiary"></path></g></svg></g><defs></defs></svg><rect width="395.52" height="247.2" fill="none" stroke="none" visibility="hidden"></rect></g></svg></g></svg>